/* XPM */
static char *close_prelight[] = {
/* columns rows colors chars-per-pixel */
"34 26 61 1 ",
"  c #B3421B",
". c #B6431B",
"X c #B9451C",
"o c #BE461C",
"O c #BF471C",
"+ c #B64A24",
"@ c #B64B25",
"# c #C1481D",
"$ c #C2481D",
"% c #C94B1E",
"& c #CA4B1E",
"* c #CB4B1E",
"= c #CC4B1E",
"- c #CE4C1F",
"; c #CF4D1F",
": c #D04D1F",
"> c #C05A37",
", c #C05B37",
"< c #C05B38",
"1 c #C56643",
"2 c #C66644",
"3 c #C66645",
"4 c #D9714C",
"5 c #D9724D",
"6 c #D9734E",
"7 c #DA734F",
"8 c #CF7656",
"9 c #D07656",
"0 c #D07757",
"q c #DA7450",
"w c #DA7652",
"e c #DB7754",
"r c #DB7854",
"t c #DB7957",
"y c #DB7A57",
"u c #D07858",
"i c #DC7A58",
"p c #DD7E5D",
"a c #D58063",
"s c #D58064",
"d c #D68264",
"f c #DF8767",
"g c #DF8768",
"h c #DF8869",
"j c #DD8D71",
"k c #DD8E72",
"l c #E08B6D",
"z c #E08C6E",
"x c #E19579",
"c c #E3967A",
"v c #E3967B",
"b c #E2977B",
"n c #E2967C",
"m c #E2977C",
"M c #E3977C",
"N c #E2977D",
"B c #E8A891",
"V c #E9AB96",
"C c #F5D9CF",
"Z c #F5DAD0",
"A c #FFFDFD",
/* pixels */
"::::::::::::*#X.  .X#*::::::::::::",
"::::::::::%X@3djNNjs3@X&::::::::::",
"::::::::;o+uMlpr66rplNu+o;::::::::",
":::::::-X<xg744444444qgx>X-:::::::",
"::::::;X3vt444444444444yM3X;::::::",
"::::::o,cw44444444444444wM>O::::::",
":::::%+xt4444444444444444yx+&:::::",
":::::Xuf444444444444444444h0X:::::",
"::::*@M7444445444444544444qn+*::::",
"::::#3l444445ZB4444BZ544444z3$::::",
"::::Xsp444444BAV44BAV444444psX::::",
"::::.ke4444444BAVBAV4444444rj.::::",
":::: m744444444BAAB444444447m ::::",
":::: b744444444BAAB444444447b ::::",
"::::.je4444444BAVBAV4444444rj.::::",
"::::Xsp444444BAV44BAV444444paX::::",
"::::#3l444445CB4444BZ544444z1$::::",
"::::*@nq444445444444544444qn+=::::",
":::::Xug444444444444444444h9X:::::",
":::::&+xy4444444444444444ix+&:::::",
"::::::o>vw44444444444444wM>O::::::",
"::::::;X3vy444444444444iv2X;::::::",
":::::::-X>xhq44444444qhx>X-:::::::",
"::::::::;o+8nzpr77rpznu+O;::::::::",
"::::::::::&X+2sjmmjs1+X&::::::::::",
"::::::::::::*$X.  .X$=::::::::::::"
};
