/* XPM */
static char *close_inactive[] = {
/* columns rows colors chars-per-pixel */
"34 26 25 1 ",
"  c #E39F87",
". c #E49E86",
"X c #E49F87",
"o c #E59F87",
"O c #E4A088",
"+ c #E5A189",
"@ c #E4A18A",
"# c #E5A18A",
"$ c #E4A18B",
"% c #E5A18B",
"& c #E5A28B",
"* c #E5A28C",
"= c #E5A38C",
"- c #E5A38D",
"; c #E6A38C",
": c #E5A48D",
"> c #E6A48D",
", c #E6A58E",
"< c #E6A68F",
"1 c #EDBDAB",
"2 c #EDBDAC",
"3 c #EDBEAE",
"4 c #F2D2C6",
"5 c #F2D2C7",
"6 c #F7E1DA",
/* pixels */
"............X@;:>>:;@X............",
"..........o*,,,,,,,,,,;o..........",
".........&,,,,,,,,,,,,,,&.........",
"........*,,,,,,,,,,,,,,,,;........",
".......;,,,,,,,,,,,,,,,,,,;.......",
"......&,,,,,,,,,,,,,,,,,,,,%......",
".....o,,,,,,,,,,,,,,,,,,,,,,o.....",
".....;,,,,,,,,,,,,,,,,,,,,,,;.....",
".... ,,,,,,,,<,,,,,,<,,,,,,,,X....",
"....@,,,,,,,<42,,,,24<,,,,,,,#....",
"....;,,,,,,,,163,,163,,,,,,,,;....",
"....>,,,,,,,,,163163,,,,,,,,,:....",
"....>,,,,,,,,,,2662,,,,,,,,,,>....",
"....>,,,,,,,,,,2662,,,,,,,,,,>....",
"....:,,,,,,,,,163163,,,,,,,,,:....",
"....;,,,,,,,,163,,163,,,,,,,,=....",
"....@,,,,,,,<52,,,,24<,,,,,,,+....",
".... ,,,,,,,,<,,,,,,<,,,,,,,, ....",
".....;,,,,,,,,,,,,,,,,,,,,,,=.....",
".....X,,,,,,,,,,,,,,,,,,,,,,o.....",
"......&,,,,,,,,,,,,,,,,,,,,$......",
".......=,,,,,,,,,,,,,,,,,,;.......",
"........;,,,,,,,,,,,,,,,,;........",
".........&,,,,,,,,,,,,,,$.........",
"..........O*,,,,,,,,,,;o..........",
"............ #;:>>-=# ............"
};
