/* XPM */
static char *hide_inactive[] = {
/* columns rows colors chars-per-pixel */
"34 26 42 1 ",
"  c #C08875",
". c #C38A77",
"X c #C28B77",
"o c #C38B77",
"O c #C48A77",
"+ c #C28A78",
"@ c #C38B78",
"# c #C78D79",
"$ c #C9917E",
"% c #CA917E",
"& c #CA927E",
"* c #CD907C",
"= c #CE917D",
"- c #D0937E",
"; c #D1937F",
": c #CE9482",
"> c #CF9583",
", c #CF9683",
"< c #D99984",
"1 c #DA9A84",
"2 c #DB9A85",
"3 c #DC9B85",
"4 c #DE9D87",
"5 c #DF9D87",
"6 c #D69B89",
"7 c #D59C88",
"8 c #D69C89",
"9 c #D69D8A",
"0 c #E09E88",
"q c #D8A08E",
"w c #D8A18E",
"e c #D9A18E",
"r c #DEA592",
"t c #DFA592",
"y c #DEA593",
"u c #E2A996",
"i c #E2AA97",
"p c #E3AA97",
"a c #E3AA98",
"s c #E4AB98",
"d c #E4AB99",
"f c #F6E2DB",
/* pixels */
"0000000000002-#O  O#-2000000000000",
"0000000000<#+,qriire,+#10000000000",
"000000005*o7sdddddddda9o*500000000",
"00000004#&pddddddddddddi$#40000000",
"0000005#>dddddddddddddddd,#5000000",
"000000*%sddddddddddddddddd&=000000",
"00000<opddddddddddddddddddu.100000",
"00000#8dddddddddddddddddddd8#00000",
"00002+sddddddddddddddddddddp@20000",
"0000->dddddddddddddddddddddd,;0000",
"0000#edddddddddddddddddddddde#0000",
"0000OyddddddddddddddddddddddtO0000",
"0000 iddddddddddddddddddddddi 0000",
"0000 pddddddddddddddddddddddi 0000",
"0000OtddddddddddddddddddddddrO0000",
"0000#edddddddffffffffdddddddw#0000",
"0000-,dddddddddddddddddddddd:;0000",
"00002+pddddddddddddddddddddpo30000",
"00000#7dddddddddddddddddddd6#00000",
"000001.iddddddddddddddddddu.100000",
"000000*%sddddddddddddddddd%=000000",
"0000005#,sdddddddddddddds,#5000000",
"00000004#$iddddddddddddu$#40000000",
"000000005*X8pddddddddp7.=500000000",
"00000000001#@,eriire:o#10000000000",
"0000000000002;#O  O#;3000000000000"
};
