/* XPM */
static char *hide_pressed[] = {
/* columns rows colors chars-per-pixel */
"34 26 39 1 ",
"  c #B3421B",
". c #B6431B",
"X c #B9451C",
"o c #BE461C",
"O c #BF471C",
"+ c #B64721",
"@ c #B64821",
"# c #B64922",
"$ c #BE542E",
"% c #BE542F",
"& c #C1481D",
"* c #C2481D",
"= c #C94B1E",
"- c #CA4B1E",
"; c #CB4B1E",
": c #CC4B1E",
"> c #CE4C1F",
", c #CF4D1F",
"< c #D04D1F",
"1 c #C45D37",
"2 c #C45D39",
"3 c #C45D3A",
"4 c #CC6845",
"5 c #CD6946",
"6 c #CD6947",
"7 c #CD6A48",
"8 c #CD6B48",
"9 c #D2714F",
"0 c #D27250",
"q c #D87B5A",
"w c #D87B5B",
"e c #DC8262",
"r c #DC8263",
"t c #DE8465",
"y c #DF8565",
"u c #DF8566",
"i c #DE8567",
"p c #DF8667",
"a c white",
/* pixels */
"<<<<<<<<<<<<;&X.  .X&;<<<<<<<<<<<<",
"<<<<<<<<<<=X#20qrrq92#X-<<<<<<<<<<",
"<<<<<<<<,o@7yppppppppi8@o,<<<<<<<<",
"<<<<<<<>X%eppppppppppppe%X><<<<<<<",
"<<<<<<,X3pppppppppppppppp2X,<<<<<<",
"<<<<<<o$uppppppppppppppppp%O<<<<<<",
"<<<<<=@eppppppppppppppppppe@-<<<<<",
"<<<<<X7pppppppppppppppppppp6X<<<<<",
"<<<<;#uppppppppppppppppppppt@;<<<<",
"<<<<&3pppppppppppppppppppppp2*<<<<",
"<<<<X9pppppppppppppppppppppp9X<<<<",
"<<<<.wppppppppppppppppppppppq.<<<<",
"<<<< rppppppppppppppppppppppr <<<<",
"<<<< eppppppppppppppppppppppe <<<<",
"<<<<.qppppppppppppppppppppppq.<<<<",
"<<<<X9pppppppaaaaaaaappppppp9X<<<<",
"<<<<&2pppppppppppppppppppppp1*<<<<",
"<<<<;#tppppppppppppppppppppt@:<<<<",
"<<<<<X7pppppppppppppppppppp5X<<<<<",
"<<<<<-@eppppppppppppppppppe@-<<<<<",
"<<<<<<o$uppppppppppppppppp%O<<<<<<",
"<<<<<<,X2uppppppppppppppu2X,<<<<<<",
"<<<<<<<>X%eppppppppppppe%X><<<<<<<",
"<<<<<<<<,o+4tppppppppt7@O,<<<<<<<<",
"<<<<<<<<<<-X@29qrrq91@X-<<<<<<<<<<",
"<<<<<<<<<<<<;*X.  .X*:<<<<<<<<<<<<"
};
