/* XPM */
static char *hide_active[] = {
/* columns rows colors chars-per-pixel */
"34 26 12 1 ",
"  c #D04D1F",
". c #D04E21",
"X c #D15023",
"o c #D25529",
"O c #D2552A",
"+ c #D3572B",
"@ c #D35A2F",
"# c #D45A30",
"$ c #D45C31",
"% c #D45E34",
"& c #D55E35",
"* c white",
/* pixels */
"            XO@$%%$@OX            ",
"          X#&&&&&&&&&&@X          ",
"         +&&&&&&&&&&&&&&+         ",
"       .#&&&&&&&&&&&&&&&&@.       ",
"       @&&&&&&&&&&&&&&&&&&@       ",
"      +&&&&&&&&&&&&&&&&&&&&+      ",
"     X&&&&&&&&&&&&&&&&&&&&&&X     ",
"     @&&&&&&&&&&&&&&&&&&&&&&@     ",
"    X&&&&&&&&&&&&&&&&&&&&&&&&X    ",
"    O&&&&&&&&&&&&&&&&&&&&&&&&o    ",
"    @&&&&&&&&&&&&&&&&&&&&&&&&@    ",
"    $&&&&&&&&&&&&&&&&&&&&&&&&$    ",
"    %&&&&&&&&&&&&&&&&&&&&&&&&%    ",
"    %&&&&&&&&&&&&&&&&&&&&&&&&%    ",
"    $&&&&&&&&&&&&&&&&&&&&&&&&$    ",
"    @&&&&&&&&********&&&&&&&&@    ",
"    O&&&&&&&&&&&&&&&&&&&&&&&&o    ",
"    X&&&&&&&&&&&&&&&&&&&&&&&&X    ",
"     @&&&&&&&&&&&&&&&&&&&&&&@     ",
"     X&&&&&&&&&&&&&&&&&&&&&&X     ",
"      +&&&&&&&&&&&&&&&&&&&&+      ",
"       @&&&&&&&&&&&&&&&&&&@       ",
"       .@&&&&&&&&&&&&&&&&@.       ",
"         +&&&&&&&&&&&&&&+         ",
"          X@&&&&&&&&&&@X          ",
"            Xo@$%%$@oX            "
};
