/* XPM */
static char *hide_prelight[] = {
/* columns rows colors chars-per-pixel */
"30 30 16 1 ",
"  c #D04D1F",
". c #D04E20",
"X c #D15124",
"o c #D15326",
"O c #D25529",
"+ c #D2552A",
"@ c #D2562A",
"# c #D3572B",
"$ c #D3582D",
"% c #D45A30",
"& c #D45B31",
"* c #D45C32",
"= c #D45D33",
"- c #D45E34",
"; c #D55E35",
": c white",
/* pixels */
"          X#&=;;=&#X          ",
"       .+=;;;;;;;;;;=O.       ",
"      o*;;;;;;;;;;;;;;*o      ",
"     +;;;;;;;;;;;;;;;;;;@     ",
"    $;;;;;;;;;;;;;;;;;;;;$    ",
"   @;;;;;;;;;;;;;;;;;;;;;;@   ",
"  o;;;;;;;;;;;;;;;;;;;;;;;;o  ",
" .*;;;;;;;;;;;;;;;;;;;;;;;;*. ",
" +;;;;;;;;;;;;;;;;;;;;;;;;;;O ",
" =;;;;;;;;;;;;;;;;;;;;;;;;;;= ",
"X;;;;;;;;;;;;;;;;;;;;;;;;;;;;X",
"#;;;;;;;;;;;;;;;;;;;;;;;;;;;;#",
"&;;;;;;;;;;;;;;;;;;;;;;;;;;;;%",
"=;;;;;;;;;;;;;;;;;;;;;;;;;;;;=",
"-;;;;;;;;;;;;;;;;;;;;;;;;;;;;-",
"-;;;;;;;;;;;;;;;;;;;;;;;;;;;;-",
"=;;;;;;;;;;;;;;;;;;;;;;;;;;;;=",
"&;;;;;;;;;;::::::::;;;;;;;;;;%",
"#;;;;;;;;;;;;;;;;;;;;;;;;;;;;@",
"X;;;;;;;;;;;;;;;;;;;;;;;;;;;;X",
" =;;;;;;;;;;;;;;;;;;;;;;;;;;= ",
" O;;;;;;;;;;;;;;;;;;;;;;;;;;O ",
" .*;;;;;;;;;;;;;;;;;;;;;;;;*. ",
"  o;;;;;;;;;;;;;;;;;;;;;;;;o  ",
"   @;;;;;;;;;;;;;;;;;;;;;;+   ",
"    $;;;;;;;;;;;;;;;;;;;;$    ",
"     +;;;;;;;;;;;;;;;;;;@     ",
"      o*;;;;;;;;;;;;;;*o      ",
"       .O=;;;;;;;;;;=O.       ",
"          X#%=--=%@X          "
};
