/* XPM */
static char *maximize_inactive[] = {
/* columns rows colors chars-per-pixel */
"34 26 19 1 ",
"  c #E39F87",
". c #E49E86",
"X c #E49F87",
"o c #E59F87",
"O c #E4A088",
"+ c #E5A189",
"@ c #E4A18A",
"# c #E5A18A",
"$ c #E4A18B",
"% c #E5A18B",
"& c #E5A28B",
"* c #E5A28C",
"= c #E5A38C",
"- c #E5A38D",
"; c #E6A38C",
": c #E5A48D",
"> c #E6A48D",
", c #E6A58E",
"< c #F7E2DB",
/* pixels */
"............X@;:>>:;@X............",
"..........o*,,,,,,,,,,;o..........",
".........&,,,,,,,,,,,,,,&.........",
"........*,,,,,,,,,,,,,,,,;........",
".......;,,,,,,,,,,,,,,,,,,;.......",
"......&,,,,,,,,,,,,,,,,,,,,%......",
".....o,,,,,,,,,,,,,,,,,,,,,,o.....",
".....;,,,,,,,,,,,,,,,,,,,,,,;.....",
".... ,,,,,,,,,,,,,,,,,,,,,,,,X....",
"....@,,,,,,,,<<<<<<<<,,,,,,,,#....",
"....;,,,,,,,,<,,,,,,<,,,,,,,,;....",
"....>,,,,,,,,<,,,,,,<,,,,,,,,:....",
"....>,,,,,,,,<,,,,,,<,,,,,,,,>....",
"....>,,,,,,,,<,,,,,,<,,,,,,,,>....",
"....:,,,,,,,,<,,,,,,<,,,,,,,,:....",
"....;,,,,,,,,<,,,,,,<,,,,,,,,=....",
"....@,,,,,,,,<<<<<<<<,,,,,,,,+....",
".... ,,,,,,,,,,,,,,,,,,,,,,,, ....",
".....;,,,,,,,,,,,,,,,,,,,,,,=.....",
".....X,,,,,,,,,,,,,,,,,,,,,,o.....",
"......&,,,,,,,,,,,,,,,,,,,,$......",
".......=,,,,,,,,,,,,,,,,,,;.......",
"........;,,,,,,,,,,,,,,,,;........",
".........&,,,,,,,,,,,,,,$.........",
"..........O*,,,,,,,,,,;o..........",
"............ #;:>>-=# ............"
};
