/* XPM */
static char *maximize_inactive[] = {
/* columns rows colors chars-per-pixel */
"34 26 18 1 ",
"  c #E5A48D",
". c #E4A48E",
"X c #E5A48E",
"o c #E5A58E",
"O c #E5A58F",
"+ c #E6A58E",
"@ c #E5A690",
"# c #E5A791",
"$ c #E6A791",
"% c #E6A792",
"& c #E6A892",
"* c #E6A893",
"= c #E7A893",
"- c #E6A994",
"; c #E7A994",
": c #E6AA95",
"> c #E7AA95",
", c #F7E4DD",
/* pixels */
"            X@=-::-=@X            ",
"          +&>>>>>>>>>>=+          ",
"         &>>>>>>>>>>>>>>&         ",
"        &>>>>>>>>>>>>>>>>=        ",
"       =>>>>>>>>>>>>>>>>>>=       ",
"      &>>>>>>>>>>>>>>>>>>>>$      ",
"     +>>>>>>>>>>>>>>>>>>>>>>+     ",
"     =>>>>>>>>>>>>>>>>>>>>>>=     ",
"    .>>>>>>>>>>>>>>>>>>>>>>>>X    ",
"    @>>>>>>>>,,,,,,,,>>>>>>>>$    ",
"    =>>>>>>>>,>>>>>>,>>>>>>>>=    ",
"    ;>>>>>>>>,>>>>>>,>>>>>>>>-    ",
"    :>>>>>>>>,>>>>>>,>>>>>>>>:    ",
"    :>>>>>>>>,>>>>>>,>>>>>>>>:    ",
"    ->>>>>>>>,>>>>>>,>>>>>>>>-    ",
"    =>>>>>>>>,>>>>>>,>>>>>>>>*    ",
"    @>>>>>>>>,,,,,,,,>>>>>>>>$    ",
"    .>>>>>>>>>>>>>>>>>>>>>>>>.    ",
"     =>>>>>>>>>>>>>>>>>>>>>>*     ",
"     o>>>>>>>>>>>>>>>>>>>>>>+     ",
"      &>>>>>>>>>>>>>>>>>>>>#      ",
"       *>>>>>>>>>>>>>>>>>>=       ",
"        =>>>>>>>>>>>>>>>>=        ",
"         &>>>>>>>>>>>>>>#         ",
"          O%>>>>>>>>>>=+          ",
"            .$=-::**$.            "
};
