/* XPM */
static char *maximize_inactive[] = {
/* columns rows colors chars-per-pixel */
"34 26 19 1 ",
"  c #E59F87",
". c #E4A088",
"X c #E5A088",
"o c #E5A189",
"O c #E6A088",
"+ c #E5A28B",
"@ c #E6A28A",
"# c #E6A28B",
"$ c #E5A28C",
"% c #E6A28C",
"& c #E6A38C",
"* c #E6A38D",
"= c #E6A48C",
"- c #E7A48C",
"; c #E6A48E",
": c #E6A58E",
"> c #E7A58E",
", c #E7A58F",
"< c #F7E2DB",
/* pixels */
"            X+-::::-+X            ",
"          O*,,,,,,,,,,-O          ",
"         &,,,,,,,,,,,,,,&         ",
"        *,,,,,,,,,,,,,,,,-        ",
"       -,,,,,,,,,,,,,,,,,,-       ",
"      &,,,,,,,,,,,,,,,,,,,,%      ",
"     O,,,,,,,,,,,,,,,,,,,,,,O     ",
"     -,,,,,,,,,,,,,,,,,,,,,,-     ",
"    .,,,,,,,,,,,,,,,,,,,,,,,,X    ",
"    +,,,,,,,,<<<<<<<<,,,,,,,,#    ",
"    -,,,,,,,,<,,,,,,<,,,,,,,,-    ",
"    >,,,,,,,,<,,,,,,<,,,,,,,,:    ",
"    :,,,,,,,,<,,,,,,<,,,,,,,,:    ",
"    :,,,,,,,,<,,,,,,<,,,,,,,,:    ",
"    :,,,,,,,,<,,,,,,<,,,,,,,,:    ",
"    -,,,,,,,,<,,,,,,<,,,,,,,,=    ",
"    +,,,,,,,,<<<<<<<<,,,,,,,,@    ",
"    .,,,,,,,,,,,,,,,,,,,,,,,,.    ",
"     -,,,,,,,,,,,,,,,,,,,,,,=     ",
"     X,,,,,,,,,,,,,,,,,,,,,,O     ",
"      &,,,,,,,,,,,,,,,,,,,,$      ",
"       =,,,,,,,,,,,,,,,,,,-       ",
"        -,,,,,,,,,,,,,,,,-        ",
"         &,,,,,,,,,,,,,,$         ",
"          o&,,,,,,,,,,-O          ",
"            .#-:::;=#.            "
};
