/* XPM */
static char *maximize_prelight[] = {
/* columns rows colors chars-per-pixel */
"34 26 56 1 ",
"  c #B3421B",
". c #B6431B",
"X c #B9451C",
"o c #BE461C",
"O c #BF471C",
"+ c #B64A24",
"@ c #B64B25",
"# c #C1481D",
"$ c #C2481D",
"% c #C94B1E",
"& c #CA4B1E",
"* c #CB4B1E",
"= c #CC4B1E",
"- c #CE4C1F",
"; c #CF4D1F",
": c #D04D1F",
"> c #C05A37",
", c #C05B37",
"< c #C05B38",
"1 c #C56643",
"2 c #C66644",
"3 c #C66645",
"4 c #D9714C",
"5 c #D9734E",
"6 c #DA734F",
"7 c #CF7656",
"8 c #D07656",
"9 c #D07757",
"0 c #DA7450",
"q c #DA7652",
"w c #DB7754",
"e c #DB7854",
"r c #DB7957",
"t c #DB7A57",
"y c #D07858",
"u c #DC7A58",
"i c #DD7E5D",
"p c #D58063",
"a c #D58064",
"s c #D68264",
"d c #DF8767",
"f c #DF8768",
"g c #DF8869",
"h c #DD8D71",
"j c #DD8E72",
"k c #E08B6D",
"l c #E08C6E",
"z c #E19579",
"x c #E3967A",
"c c #E3967B",
"v c #E2977B",
"b c #E2967C",
"n c #E2977C",
"m c #E3977C",
"M c #E2977D",
"N c white",
/* pixels */
"::::::::::::*#X.  .X#*::::::::::::",
"::::::::::%X@3shMMha3@X&::::::::::",
"::::::::;o+ymkie55eikMy+o;::::::::",
":::::::-X<zf6444444440fz>X-:::::::",
"::::::;X3cr444444444444tm3X;::::::",
"::::::o,xq44444444444444qm>O::::::",
":::::%+zr4444444444444444tz+&:::::",
":::::Xyd444444444444444444g9X:::::",
"::::*@m64444444444444444440b+*::::",
"::::#3k444444NNNNNNNN444444l3$::::",
"::::Xai444444N444444N444444iaX::::",
"::::.jw444444N444444N444444eh.::::",
":::: n6444444N444444N4444446n ::::",
":::: v6444444N444444N4444446v ::::",
"::::.hw444444N444444N444444eh.::::",
"::::Xai444444N444444N444444ipX::::",
"::::#3k444444NNNNNNNN444444l1$::::",
"::::*@b04444444444444444440b+=::::",
":::::Xyf444444444444444444g8X:::::",
":::::&+zt4444444444444444uz+&:::::",
"::::::o>cq44444444444444qm>O::::::",
"::::::;X3ct444444444444uc2X;::::::",
":::::::-X>zg0444444440gz>X-:::::::",
"::::::::;o+7blie66eilby+O;::::::::",
"::::::::::&X+2ahnnha1+X&::::::::::",
"::::::::::::*$X.  .X$=::::::::::::"
};
