/* XPM */
static char *top_left_inactive[] = {
/* columns rows colors chars-per-pixel */
"8 38 5 1 ",
"  c None",
". c #E49F87",
"X c #E59F87",
"o c #E49F88",
"O c #E5A087",
/* pixels */
"     oXX",
"   OXXXX",
"  OXXXXX",
" OXXXXXX",
" XXXXXXX",
".XXXXXXX",
"XXXXXXXX",
"OXXXXXXX",
"XXXXXXXX",
"XXXXXXXX",
"XXXXXXXX",
"XXXXXXXX",
"XXXXXXXX",
"XXXXXXXX",
"XXXXXXXX",
"XXXXXXXX",
"XXXXXXXX",
"XXXXXXXX",
"XXXXXXXX",
"XXXXXXXX",
"XXXXXXXX",
"XXXXXXXX",
"XXXXXXXX",
"XXXXXXXX",
"XXXXXXXX",
"XXXXXXXX",
"XXXXXXXX",
"XXXXXXXX",
"XXXXXXXX",
"XXXXXXXX",
"XXXXXXXX",
"XXXXXXXX",
"XXXXXXXX",
"XXXXXXXX",
"XXXXXXXX",
"XXXXXXXX",
"XXXXXXXX",
"XXXXXXXX"
};
