/* XPM */
static char *top_left_inactive[] = {
/* columns rows colors chars-per-pixel */
"8 38 6 1 ",
"  c None",
". c #E39E86",
"X c #E49E86",
"o c #E59E86",
"O c #E49F86",
"+ c #E49E87",
/* pixels */
"     OoX",
"   .XXXX",
"  XXXXXX",
" .XXXXXX",
" XXXXXXX",
"+XXXXXXX",
".XXXXXXX",
"XXXXXXXX",
"XXXXXXXX",
"XXXXXXXX",
"XXXXXXXX",
"XXXXXXXX",
"XXXXXXXX",
"XXXXXXXX",
"XXXXXXXX",
"XXXXXXXX",
"XXXXXXXX",
"XXXXXXXX",
"XXXXXXXX",
"XXXXXXXX",
"XXXXXXXX",
"XXXXXXXX",
"XXXXXXXX",
"XXXXXXXX",
"XXXXXXXX",
"XXXXXXXX",
"XXXXXXXX",
"XXXXXXXX",
"XXXXXXXX",
"XXXXXXXX",
"XXXXXXXX",
"XXXXXXXX",
"XXXXXXXX",
"XXXXXXXX",
"XXXXXXXX",
"XXXXXXXX",
"XXXXXXXX",
"XXXXXXXX"
};
