/* XPM */
static char *close_pressed[] = {
/* columns rows colors chars-per-pixel */
"34 34 29 1 ",
"  c #302D2C",
". c #322F2E",
"X c #33302F",
"o c #343130",
"O c #363433",
"+ c #373433",
"@ c #3A3736",
"# c #3B3837",
"$ c #3B3938",
"% c #3C3938",
"& c #3E3B3A",
"* c #3F3C3B",
"= c #3F3D3C",
"- c #43403F",
"; c #434140",
": c #454242",
"> c #464342",
", c #484645",
"< c #4C4A49",
"1 c #4D4B4A",
"2 c #4E4B4B",
"3 c #4F4C4B",
"4 c #504D4C",
"5 c #939190",
"6 c #939191",
"7 c #979695",
"8 c #D0CFCF",
"9 c #D1D0D0",
"0 c #FDFDFD",
/* pixels */
"           .$;,<22<,;$.           ",
"         +>233333333332:+         ",
"       o>3333333333333333:o       ",
"      #13333333333333333331#      ",
"     *3333333333333333333333=     ",
"    =333333333333333333333333*    ",
"   #33333333333333333333333333#   ",
"  o1333333333333333333333333331o  ",
"  >3333333333333333333333333333:  ",
" O333333333333333333333333333333+ ",
" >333333333333333333333333333333: ",
".23333333333333333333333333333332.",
"%33333333333343333334333333333333$",
";33333333333496333369433333333333;",
",33333333333350733507333333333333,",
"<33333333333335075073333333333333<",
"2333333333333336006333333333333332",
"2333333333333336006333333333333332",
"<33333333333335075073333333333333<",
",33333333333350733507333333333333,",
";33333333333486333369433333333333-",
"$33333333333343333334333333333333$",
".23333333333333333333333333333332.",
" :333333333333333333333333333333: ",
" O333333333333333333333333333333+ ",
"  >3333333333333333333333333333:  ",
"  o1333333333333333333333333331X  ",
"   #33333333333333333333333333@   ",
"    *333333333333333333333333*    ",
"     &3333333333333333333333=     ",
"      #13333333333333333331@      ",
"       o:3333333333333333:X       ",
"         +:233333333332:O         ",
"           .$;,<22<,;$.           "
};
