/* XPM */
static char *close_pressed[] = {
/* columns rows colors chars-per-pixel */
"30 30 27 1 ",
"  c #23201F",
". c #242120",
"X c #2A2726",
"o c #2B2827",
"O c #2C2A29",
"+ c #2D2A2A",
"@ c #322F2E",
"# c #33302F",
"$ c #333130",
"% c #343131",
"& c #353231",
"* c #383534",
"= c #393635",
"- c #3C3938",
"; c #3D3A39",
": c #3F3D3C",
"> c #403E3D",
", c #413F3E",
"< c #434040",
"1 c #444140",
"2 c #454241",
"3 c #8C8A89",
"4 c #8D8B8A",
"5 c #918F8F",
"6 c #CDCCCC",
"7 c #CECDCD",
"8 c #FDFDFD",
/* pixels */
"          o&;,<<,;&o          ",
"       .#,1111111111,@.       ",
"      +>11111111111111>+      ",
"     #111111111111111111%     ",
"    =11111111111111111111*    ",
"   %1111111111111111111111$   ",
"  +111111111111111111111111+  ",
" .>111111111111111111111111:. ",
" #11111111111111111111111111@ ",
" ,11111111111111111111111111> ",
"o1111111111211111121111111111o",
"&1111111112741111472111111111&",
";1111111111385113851111111111-",
",1111111111138538511111111111,",
"<1111111111114884111111111111<",
"<1111111111114884111111111111<",
",1111111111138538511111111111,",
";1111111111385113851111111111-",
"&1111111112641111472111111111%",
"o1111111111211111121111111111X",
" ,11111111111111111111111111> ",
" @11111111111111111111111111@ ",
" .:111111111111111111111111:. ",
"  +111111111111111111111111O  ",
"   $1111111111111111111111$   ",
"    *11111111111111111111*    ",
"     #111111111111111111%     ",
"      +:11111111111111:O      ",
"       .@>1111111111>@.       ",
"          o&-,<<,-%o          "
};
