/* XPM */
static char *close_pressed[] = {
/* columns rows colors chars-per-pixel */
"34 26 31 1 ",
"  c #393534",
". c #3A3635",
"X c #3D3837",
"o c #403B3A",
"O c #413B3A",
"+ c #413D3B",
"@ c #423C3B",
"# c #433D3B",
"$ c #433D3C",
"% c #4F4845",
"& c #4F4847",
"* c #4F4947",
"= c #534B4A",
"- c #534C4A",
"; c #544D4A",
": c #5A504E",
"> c #5A524F",
", c #5B524F",
"< c #5B5250",
"1 c #5C5251",
"2 c #605755",
"3 c #655A58",
"4 c #655B59",
"5 c #675D5A",
"6 c #685E5B",
"7 c #9F8E88",
"8 c #A08F89",
"9 c #A4928B",
"0 c #D3BBB2",
"q c #D4BBB3",
"w c #F9DBD1",
/* pixels */
"            O&<2442,&O            ",
"          $15555555555<#          ",
"        .;55555555555555;.        ",
"       X15555555555555555,X       ",
"      .<555555555555555555,.      ",
"      ;55555555555555555555-      ",
"     @5555555555555555555555#     ",
"     <5555555555555555555555,     ",
"    O555555556555555655555555O    ",
"    *55555556q855558q65555555&    ",
"    ,555555557w9557w955555555,    ",
"    25555555557w97w95555555552    ",
"    355555555558ww855555555553    ",
"    355555555558ww855555555553    ",
"    25555555557w97w95555555552    ",
"    ,555555557w9557w955555555,    ",
"    &555555560855558q65555555%    ",
"    o555555556555555655555555O    ",
"     ,5555555555555555555555,     ",
"     @5555555555555555555555@     ",
"      ;55555555555555555555=      ",
"       >555555555555555555,.      ",
"       X,5555555555555555,X       ",
"        .;55555555555555=.        ",
"          +:5555555555,@          ",
"            O&,2332,&o            "
};
