/* XPM */
static char *close_inactive[] = {
/* columns rows colors chars-per-pixel */
"34 26 22 1 ",
"  c #2E2A29",
". c #2F2B2A",
"X c #302B2A",
"o c #302C2B",
"O c #312C2B",
"+ c #352F2E",
"@ c #35302F",
"# c #363130",
"$ c #383231",
"% c #393231",
"& c #393332",
"* c #3A3433",
"= c #3A3534",
"- c #3C3534",
"; c #3C3635",
": c #3D3736",
"> c #6E615E",
", c #6E625E",
"< c #716561",
"1 c #9B8883",
"2 c #9B8984",
"3 c #BCA69F",
/* pixels */
"            X+&*--*&+X            ",
"          O&;;;;;;;;;;&O          ",
"         #;;;;;;;;;;;;;;#         ",
"       .&;;;;;;;;;;;;;;;;&.       ",
"       &;;;;;;;;;;;;;;;;;;&       ",
"      #;;;;;;;;;;;;;;;;;;;;#      ",
"     O;;;;;;;;;;;;;;;;;;;;;;O     ",
"     &;;;;;;;;;;;;;;;;;;;;;;&     ",
"    X;;;;;;;;:;;;;;;:;;;;;;;;X    ",
"    @;;;;;;;:2,;;;;,2:;;;;;;;+    ",
"    &;;;;;;;;>3<;;>3<;;;;;;;;&    ",
"    =;;;;;;;;;>3<>3<;;;;;;;;;=    ",
"    -;;;;;;;;;;,33,;;;;;;;;;;-    ",
"    -;;;;;;;;;;,33,;;;;;;;;;;-    ",
"    =;;;;;;;;;>3<>3<;;;;;;;;;*    ",
"    &;;;;;;;;>3<;;>3<;;;;;;;;&    ",
"    +;;;;;;;:1,;;;;,2:;;;;;;;+    ",
"    X;;;;;;;;:;;;;;;:;;;;;;;;X    ",
"     &;;;;;;;;;;;;;;;;;;;;;;&     ",
"     O;;;;;;;;;;;;;;;;;;;;;;O     ",
"      #;;;;;;;;;;;;;;;;;;;;#      ",
"       %;;;;;;;;;;;;;;;;;;&       ",
"       .&;;;;;;;;;;;;;;;;&.       ",
"         #;;;;;;;;;;;;;;#         ",
"          o$;;;;;;;;;;&O          ",
"            X+&*--*&+X            "
};
