/* XPM */
static char *close_prelight[] = {
/* columns rows colors chars-per-pixel */
"34 26 24 1 ",
"  c #393534",
". c #3D3736",
"X c #3F3938",
"o c #3F3B3A",
"O c #413B3A",
"+ c #4A4441",
"@ c #4A4443",
"# c #4B4443",
"$ c #4E4746",
"% c #4E4946",
"& c #544A4A",
"* c #544C4A",
"= c #564C4B",
"- c #584F4F",
"; c #58514F",
": c #5D5451",
"> c #5E5552",
", c #5F5653",
"< c #9A8983",
"1 c #9B8A84",
"2 c #9E8D86",
"3 c #D1B9B0",
"4 c #D2B9B1",
"5 c #F9DBD1",
/* pixels */
"            X#*;::;*#X            ",
"          O=>>>>>>>>>>*O          ",
"         %>>>>>>>>>>>>>>%         ",
"       .=>>>>>>>>>>>>>>>>*.       ",
"       *>>>>>>>>>>>>>>>>>>*       ",
"      %>>>>>>>>>>>>>>>>>>>>$      ",
"     O>>>>>>>>>>>>>>>>>>>>>>O     ",
"     *>>>>>>>>>>>>>>>>>>>>>>*     ",
"    X>>>>>>>>,>>>>>>,>>>>>>>>X    ",
"    #>>>>>>>,41>>>>14,>>>>>>>@    ",
"    *>>>>>>>><52>><52>>>>>>>>*    ",
"    ;>>>>>>>>><52<52>>>>>>>>>;    ",
"    :>>>>>>>>>>1551>>>>>>>>>>:    ",
"    :>>>>>>>>>>1551>>>>>>>>>>:    ",
"    ;>>>>>>>>><52<52>>>>>>>>>;    ",
"    *>>>>>>>><52>><52>>>>>>>>*    ",
"    #>>>>>>>,31>>>>14,>>>>>>>+    ",
"    X>>>>>>>>,>>>>>>,>>>>>>>>X    ",
"     *>>>>>>>>>>>>>>>>>>>>>>*     ",
"     O>>>>>>>>>>>>>>>>>>>>>>O     ",
"      %>>>>>>>>>>>>>>>>>>>>$      ",
"       *>>>>>>>>>>>>>>>>>>*       ",
"       .*>>>>>>>>>>>>>>>>*.       ",
"         %>>>>>>>>>>>>>>$         ",
"          o&>>>>>>>>>>*O          ",
"            X@*;::-*@X            "
};
