/* XPM */
static char *close_prelight[] = {
/* columns rows colors chars-per-pixel */
"34 34 19 1 ",
"  c #403835",
". c #413935",
"X c #413936",
"o c #423936",
"O c #473F3C",
"+ c #483F3C",
"@ c #4E4541",
"# c #4F4541",
"$ c #4F4542",
"% c #4F4642",
"& c #524844",
"* c #534945",
"= c #544A46",
"- c #93827B",
"; c #94837C",
": c #98867F",
"> c #CEB5AC",
", c #CFB6AD",
"< c #F9DBD1",
/* pixels */
"  X+#&**********************&#+.  ",
" o%****************************%o ",
"X%******************************%.",
"+********************************O",
"$********************************#",
"&********************************&",
"**********************************",
"**********************************",
"**********************************",
"**********************************",
"**********************************",
"**********************************",
"*************=******=*************",
"************=,;****;,=************",
"*************-<:**-<:*************",
"**************-<:-<:**************",
"***************;<<;***************",
"***************;<<;***************",
"**************-<:-<:**************",
"*************-<:**-<:*************",
"************=>;****;,=************",
"*************=******=*************",
"**********************************",
"**********************************",
"**********************************",
"**********************************",
"**********************************",
"**********************************",
"&********************************&",
"#********************************@",
"+********************************O",
"X%******************************%.",
" o%****************************%o ",
"  .O@&**********************&@O.  "
};
