/* XPM */
static char *close_pressed[] = {
/* columns rows colors chars-per-pixel */
"34 34 16 1 ",
"  c #403835",
". c #413936",
"X c #433A37",
"o c #4C423F",
"O c #4C4240",
"+ c #564B48",
"@ c #574C49",
"# c #5B4F4C",
"$ c #5B504D",
"% c #5C514D",
"& c #5D524E",
"* c #998780",
"= c #998881",
"- c #9D8B83",
"; c #D1B8AF",
": c #F9DBD1",
/* pixels */
"  .O+$%%%%%%%%%%%%%%%%%%%%%%$+O.  ",
" X@%%%%%%%%%%%%%%%%%%%%%%%%%%%%@X ",
".@%%%%%%%%%%%%%%%%%%%%%%%%%%%%%%@.",
"O%%%%%%%%%%%%%%%%%%%%%%%%%%%%%%%%o",
"+%%%%%%%%%%%%%%%%%%%%%%%%%%%%%%%%+",
"#%%%%%%%%%%%%%%%%%%%%%%%%%%%%%%%%#",
"%%%%%%%%%%%%%%%%%%%%%%%%%%%%%%%%%%",
"%%%%%%%%%%%%%%%%%%%%%%%%%%%%%%%%%%",
"%%%%%%%%%%%%%%%%%%%%%%%%%%%%%%%%%%",
"%%%%%%%%%%%%%%%%%%%%%%%%%%%%%%%%%%",
"%%%%%%%%%%%%%%%%%%%%%%%%%%%%%%%%%%",
"%%%%%%%%%%%%%%%%%%%%%%%%%%%%%%%%%%",
"%%%%%%%%%%%%%&%%%%%%&%%%%%%%%%%%%%",
"%%%%%%%%%%%%&;=%%%%=;&%%%%%%%%%%%%",
"%%%%%%%%%%%%%*:-%%*:-%%%%%%%%%%%%%",
"%%%%%%%%%%%%%%*:-*:-%%%%%%%%%%%%%%",
"%%%%%%%%%%%%%%%=::=%%%%%%%%%%%%%%%",
"%%%%%%%%%%%%%%%=::=%%%%%%%%%%%%%%%",
"%%%%%%%%%%%%%%*:-*:-%%%%%%%%%%%%%%",
"%%%%%%%%%%%%%*:-%%*:-%%%%%%%%%%%%%",
"%%%%%%%%%%%%&;=%%%%=;&%%%%%%%%%%%%",
"%%%%%%%%%%%%%&%%%%%%&%%%%%%%%%%%%%",
"%%%%%%%%%%%%%%%%%%%%%%%%%%%%%%%%%%",
"%%%%%%%%%%%%%%%%%%%%%%%%%%%%%%%%%%",
"%%%%%%%%%%%%%%%%%%%%%%%%%%%%%%%%%%",
"%%%%%%%%%%%%%%%%%%%%%%%%%%%%%%%%%%",
"%%%%%%%%%%%%%%%%%%%%%%%%%%%%%%%%%%",
"%%%%%%%%%%%%%%%%%%%%%%%%%%%%%%%%%%",
"#%%%%%%%%%%%%%%%%%%%%%%%%%%%%%%%%#",
"+%%%%%%%%%%%%%%%%%%%%%%%%%%%%%%%%+",
"O%%%%%%%%%%%%%%%%%%%%%%%%%%%%%%%%o",
".@%%%%%%%%%%%%%%%%%%%%%%%%%%%%%%@.",
" X@%%%%%%%%%%%%%%%%%%%%%%%%%%%%@X ",
"  .o+#%%%%%%%%%%%%%%%%%%%%%%#+o.  "
};
