/* XPM */
static char *hide_inactive[] = {
/* columns rows colors chars-per-pixel */
"34 26 16 1 ",
"  c #2E2A29",
". c #2F2B2A",
"X c #302B2A",
"o c #302C2B",
"O c #312C2B",
"+ c #352F2E",
"@ c #35302F",
"# c #363130",
"$ c #383231",
"% c #393231",
"& c #393332",
"* c #3A3433",
"= c #3A3534",
"- c #3C3534",
"; c #3C3635",
": c #BDA7A0",
/* pixels */
"            X+&*--*&+X            ",
"          O&;;;;;;;;;;&O          ",
"         #;;;;;;;;;;;;;;#         ",
"       .&;;;;;;;;;;;;;;;;&.       ",
"       &;;;;;;;;;;;;;;;;;;&       ",
"      #;;;;;;;;;;;;;;;;;;;;#      ",
"     O;;;;;;;;;;;;;;;;;;;;;;O     ",
"     &;;;;;;;;;;;;;;;;;;;;;;&     ",
"    X;;;;;;;;;;;;;;;;;;;;;;;;X    ",
"    @;;;;;;;;;;;;;;;;;;;;;;;;+    ",
"    &;;;;;;;;;;;;;;;;;;;;;;;;&    ",
"    =;;;;;;;;;;;;;;;;;;;;;;;;=    ",
"    -;;;;;;;;;;;;;;;;;;;;;;;;-    ",
"    -;;;;;;;;;;;;;;;;;;;;;;;;-    ",
"    =;;;;;;;;;;;;;;;;;;;;;;;;*    ",
"    &;;;;;;;;::::::::;;;;;;;;&    ",
"    +;;;;;;;;;;;;;;;;;;;;;;;;+    ",
"    X;;;;;;;;;;;;;;;;;;;;;;;;X    ",
"     &;;;;;;;;;;;;;;;;;;;;;;&     ",
"     O;;;;;;;;;;;;;;;;;;;;;;O     ",
"      #;;;;;;;;;;;;;;;;;;;;#      ",
"       %;;;;;;;;;;;;;;;;;;&       ",
"       .&;;;;;;;;;;;;;;;;&.       ",
"         #;;;;;;;;;;;;;;#         ",
"          o$;;;;;;;;;;&O          ",
"            X+&*--*&+X            "
};
