/* XPM */
static char *hide_pressed[] = {
/* columns rows colors chars-per-pixel */
"34 26 25 1 ",
"  c #393534",
". c #3A3635",
"X c #3D3837",
"o c #403B3A",
"O c #413B3A",
"+ c #413D3B",
"@ c #423C3B",
"# c #433D3B",
"$ c #433D3C",
"% c #4F4845",
"& c #4F4847",
"* c #4F4947",
"= c #534B4A",
"- c #534C4A",
"; c #544D4A",
": c #5A504E",
"> c #5A524F",
", c #5B524F",
"< c #5B5250",
"1 c #5C5251",
"2 c #605755",
"3 c #655A58",
"4 c #655B59",
"5 c #675D5A",
"6 c #FBDDD2",
/* pixels */
"            O&<2442,&O            ",
"          $15555555555<#          ",
"        .;55555555555555;.        ",
"       X15555555555555555,X       ",
"      .<555555555555555555,.      ",
"      ;55555555555555555555-      ",
"     @5555555555555555555555#     ",
"     <5555555555555555555555,     ",
"    O555555555555555555555555O    ",
"    *555555555555555555555555&    ",
"    ,555555555555555555555555,    ",
"    25555555555555555555555552    ",
"    35555555555555555555555553    ",
"    35555555555555555555555553    ",
"    25555555555555555555555552    ",
"    ,555555556666666655555555,    ",
"    &555555555555555555555555%    ",
"    o555555555555555555555555O    ",
"     ,5555555555555555555555,     ",
"     @5555555555555555555555@     ",
"      ;55555555555555555555=      ",
"       >555555555555555555,.      ",
"       X,5555555555555555,X       ",
"        .;55555555555555=.        ",
"          +:5555555555,@          ",
"            O&,2332,&o            "
};
