/* XPM */
static char *hide_prelight[] = {
/* columns rows colors chars-per-pixel */
"34 34 19 1 ",
"  c #302D2C",
". c #322F2E",
"X c #343130",
"o c #353231",
"O c #363433",
"+ c #373433",
"@ c #383534",
"# c #393635",
"$ c #3A3736",
"% c #3B3837",
"& c #3C3938",
"* c #3D3A39",
"= c #3E3B3A",
"- c #3F3C3B",
"; c #403D3D",
": c #43403F",
"> c #434140",
", c #444241",
"< c white",
/* pixels */
"           .@*;:>>:;*+.           ",
"         o=,,,,,,,,,,,,=o         ",
"       .-,,,,,,,,,,,,,,,,=.       ",
"      +>,,,,,,,,,,,,,,,,,,>O      ",
"     $,,,,,,,,,,,,,,,,,,,,,,%     ",
"    $,,,,,,,,,,,,,,,,,,,,,,,,$    ",
"   +,,,,,,,,,,,,,,,,,,,,,,,,,,O   ",
"  .>,,,,,,,,,,,,,,,,,,,,,,,,,,>.  ",
"  -,,,,,,,,,,,,,,,,,,,,,,,,,,,,=  ",
" o,,,,,,,,,,,,,,,,,,,,,,,,,,,,,,o ",
" =,,,,,,,,,,,,,,,,,,,,,,,,,,,,,,= ",
".,,,,,,,,,,,,,,,,,,,,,,,,,,,,,,,,.",
"@,,,,,,,,,,,,,,,,,,,,,,,,,,,,,,,,+",
"*,,,,,,,,,,,,,,,,,,,,,,,,,,,,,,,,&",
";,,,,,,,,,,,,,,,,,,,,,,,,,,,,,,,,;",
":,,,,,,,,,,,,,,,,,,,,,,,,,,,,,,,,:",
">,,,,,,,,,,,,,,,,,,,,,,,,,,,,,,,,>",
">,,,,,,,,,,,,,,,,,,,,,,,,,,,,,,,,>",
":,,,,,,,,,,,,,,,,,,,,,,,,,,,,,,,,:",
";,,,,,,,,,,,,<<<<<<<<,,,,,,,,,,,,;",
"*,,,,,,,,,,,,,,,,,,,,,,,,,,,,,,,,&",
"@,,,,,,,,,,,,,,,,,,,,,,,,,,,,,,,,+",
".,,,,,,,,,,,,,,,,,,,,,,,,,,,,,,,,.",
" =,,,,,,,,,,,,,,,,,,,,,,,,,,,,,,= ",
" X,,,,,,,,,,,,,,,,,,,,,,,,,,,,,,o ",
"  =,,,,,,,,,,,,,,,,,,,,,,,,,,,,=  ",
"  .>,,,,,,,,,,,,,,,,,,,,,,,,,,>.  ",
"   O,,,,,,,,,,,,,,,,,,,,,,,,,,O   ",
"    $,,,,,,,,,,,,,,,,,,,,,,,,$    ",
"     #,,,,,,,,,,,,,,,,,,,,,,%     ",
"      O>,,,,,,,,,,,,,,,,,,>O      ",
"       .=,,,,,,,,,,,,,,,,=.       ",
"         o=,,,,,,,,,,,,=X         ",
"           .+&;:>>:;&+.           "
};
