/* XPM */
static char *maximize_active[] = {
/* columns rows colors chars-per-pixel */
"34 26 17 1 ",
"  c #393534",
". c #3B3635",
"X c #3C3736",
"o c #3C3837",
"O c #3D3837",
"+ c #423D3B",
"@ c #423D3C",
"# c #443E3D",
"$ c #443F3D",
"% c #47403F",
"& c #47413F",
"* c #484140",
"= c #494342",
"- c #494442",
"; c #4C4543",
": c #4C4644",
"> c #FBDDD2",
/* pixels */
"            X@&-;;-&@X            ",
"          O*::::::::::&O          ",
"         $::::::::::::::$         ",
"       .*::::::::::::::::&.       ",
"       &::::::::::::::::::&       ",
"      $::::::::::::::::::::#      ",
"     O::::::::::::::::::::::O     ",
"     &::::::::::::::::::::::&     ",
"    X::::::::::::::::::::::::X    ",
"    @::::::::>>>>>>>>::::::::@    ",
"    &::::::::>::::::>::::::::&    ",
"    -::::::::>::::::>::::::::-    ",
"    ;::::::::>::::::>::::::::;    ",
"    ;::::::::>::::::>::::::::;    ",
"    -::::::::>::::::>::::::::-    ",
"    &::::::::>::::::>::::::::&    ",
"    @::::::::>>>>>>>>::::::::+    ",
"    X::::::::::::::::::::::::X    ",
"     &::::::::::::::::::::::&     ",
"     O::::::::::::::::::::::O     ",
"      $::::::::::::::::::::#      ",
"       &::::::::::::::::::&       ",
"       .&::::::::::::::::&.       ",
"         $::::::::::::::#         ",
"          o%::::::::::&O          ",
"            X@&-;;=&@X            "
};
