/* XPM */
static char *top_right_inactive[] = {
/* columns rows colors chars-per-pixel */
"8 38 5 1 ",
"  c None",
". c #2F2929",
"X c #2D2A28",
"o c #2E2A29",
"O c #2E2B29",
/* pixels */
"ooO     ",
"oooOX   ",
"oooooo  ",
"ooooooX ",
"ooooooO ",
"ooooooo.",
"oooooooo",
"oooooooo",
"oooooooo",
"oooooooo",
"oooooooo",
"oooooooo",
"oooooooo",
"oooooooo",
"oooooooo",
"oooooooo",
"oooooooo",
"oooooooo",
"oooooooo",
"oooooooo",
"oooooooo",
"oooooooo",
"oooooooo",
"oooooooo",
"oooooooo",
"oooooooo",
"oooooooo",
"oooooooo",
"oooooooo",
"oooooooo",
"oooooooo",
"oooooooo",
"oooooooo",
"oooooooo",
"oooooooo",
"oooooooo",
"oooooooo",
"oooooooo"
};
