/* XPM */
static char *close_inactive[] = {
/* columns rows colors chars-per-pixel */
"34 26 23 1 ",
"  c #8D6253",
". c #A68377",
"X c #A78377",
"o c #C7AEA5",
"O c #C8B0A8",
"+ c #C9B1A9",
"@ c #EEE2DF",
"# c #EFE3E0",
"$ c #EFE4E1",
"% c #F1E6E3",
"& c #F1E7E4",
"* c #F2E7E5",
"= c #F2E8E5",
"- c #F4EAE7",
"; c #F4EAE8",
": c #F4EBE9",
"> c #F5EBE9",
", c #F5ECEA",
"< c #F8EFEC",
"1 c #F8EFED",
"2 c #F8F0ED",
"3 c #F9F1EF",
"4 c #FAF2F0",
/* pixels */
"4444444444441>=%$$%=:1444444444444",
"44444444441&##########=14444444444",
"444444444;##############;444444444",
"44444443&################=34444444",
"4444444=##################=4444444",
"444444;####################;444444",
"444441######################144444",
"44444=######################=44444",
"44441########@######@########14444",
"4444>#######@.O####O.@#######,4444",
"4444=########+ o##+ o########=4444",
"4444%#########+ o+ o#########%4444",
"4444$##########O  O##########$4444",
"4444$##########O  O##########$4444",
"4444%#########+ o+ o#########%4444",
"4444=########+ o##+ o########=4444",
"4444:#######@XO####O.@#######,4444",
"44441########@######@########14444",
"44444=######################=44444",
"44444<######################144444",
"444444;####################-444444",
"4444444*##################=4444444",
"44444443=################=34444444",
"444444444;##############-444444444",
"44444444442*##########=14444444444",
"4444444444441,=%$$%=,1444444444444"
};
