/* XPM */
static char *close_pressed[] = {
/* columns rows colors chars-per-pixel */
"34 26 25 1 ",
"  c #5F240F",
". c #7E4D3D",
"X c #7E4E3D",
"o c #A58377",
"O c #A8877B",
"+ c #A9887C",
"@ c #D7C5BF",
"# c #D8C7C1",
"$ c #D9CAC4",
"% c #DECECA",
"& c #E1D3CF",
"* c #E1D4D0",
"= c #E7DCD8",
"- c #E8DCD9",
"; c #EADFDC",
": c #EBDFDC",
"> c #ECE1DE",
", c #F5EEEB",
"< c #F6EFEC",
"1 c #F6F0EE",
"2 c #F7F1EE",
"3 c #F7F1EF",
"4 c #FBF5F4",
"5 c #FCF8F7",
"6 c #FDF9F8",
/* pixels */
"6666666666661:&%$$%&;1666666666666",
"6666666666,&##########&,6666666666",
"666666665=##############=566666666",
"66666664&################&46666666",
"6666665&##################&5666666",
"666666=####################-666666",
"66666<######################,66666",
"66666&######################&66666",
"66661########@######@########16666",
"6666:#######@.O####O.@#######>6666",
"6666&########+ o##+ o########&6666",
"6666%#########+ o+ o#########%6666",
"6666$##########O  O##########$6666",
"6666$##########O  O##########$6666",
"6666%#########+ o+ o#########%6666",
"6666&########+ o##+ o########&6666",
"6666;#######@XO####O.@#######>6666",
"66663########@######@########16666",
"66666&######################&66666",
"66666<######################<66666",
"666666=####################-666666",
"6666666*##################&5666666",
"66666664&################&46666666",
"666666665=##############-566666666",
"66666666662*##########&<6666666666",
"6666666666661>&%$$%&>3666666666666"
};
