/* XPM */
static char *close_prelight[] = {
/* columns rows colors chars-per-pixel */
"30 30 23 1 ",
"  c #301308",
". c #5A4238",
"X c #5A4239",
"o c #8F7E76",
"O c #93837B",
"+ c #94837C",
"@ c #D1C8C4",
"# c #D3CAC6",
"$ c #D4CBC7",
"% c #D5CCC8",
"& c #D5CDC9",
"* c #D6CDC9",
"= c #D7CFCB",
"- c #D8CFCC",
"; c #DBD2CE",
": c #DBD4D0",
"> c #DCD5D1",
", c #DDD5D2",
"< c #DED5D3",
"1 c #E0D8D5",
"2 c #E2DAD7",
"3 c #E5DEDB",
"4 c #E6DFDC",
/* pixels */
"44444444442:=%##%=:24444444444",
"44444443,%##########%<34444444",
"4444441*##############*1444444",
"44444,##################>44444",
"4444;####################;4444",
"444>######################>444",
"441########################144",
"43*########################*34",
"4,##########################<4",
"4%##########################%4",
"2##########@######@##########2",
":#########@.O####O.@#########:",
"=##########+ o##+ o##########-",
"%###########+ o+ o###########%",
"$############O  O############$",
"$############O  O############$",
"%###########+ o+ o###########%",
"=##########+ o##+ o##########-",
":#########@XO####O.@#########>",
"2##########@######@##########2",
"4%##########################%4",
"4<##########################<4",
"43*########################&34",
"441########################144",
"444>######################,444",
"4444;####################;4444",
"44444,##################>44444",
"4444441*##############&1444444",
"44444443<%##########%<34444444",
"44444444442:-%$$%->24444444444"
};
