/* XPM */
static char *maximize_inactive[] = {
/* columns rows colors chars-per-pixel */
"34 26 17 1 ",
"  c #8C6051",
". c #EFE3E0",
"X c #EFE4E1",
"o c #F1E6E3",
"O c #F1E7E4",
"+ c #F2E7E5",
"@ c #F2E8E5",
"# c #F4EAE7",
"$ c #F4EAE8",
"% c #F4EBE9",
"& c #F5EBE9",
"* c #F5ECEA",
"= c #F8EFEC",
"- c #F8EFED",
"; c #F8F0ED",
": c #F9F1EF",
"> c #FAF2F0",
/* pixels */
">>>>>>>>>>>>-&@oXXo@%->>>>>>>>>>>>",
">>>>>>>>>>-O..........@->>>>>>>>>>",
">>>>>>>>>$..............$>>>>>>>>>",
">>>>>>>:O................@:>>>>>>>",
">>>>>>>@..................@>>>>>>>",
">>>>>>$....................$>>>>>>",
">>>>>-......................->>>>>",
">>>>>@......................@>>>>>",
">>>>-........................->>>>",
">>>>&........        ........*>>>>",
">>>>@........ ...... ........@>>>>",
">>>>o........ ...... ........o>>>>",
">>>>X........ ...... ........X>>>>",
">>>>X........ ...... ........X>>>>",
">>>>o........ ...... ........o>>>>",
">>>>@........ ...... ........@>>>>",
">>>>%........        ........*>>>>",
">>>>-........................->>>>",
">>>>>@......................@>>>>>",
">>>>>=......................->>>>>",
">>>>>>$....................#>>>>>>",
">>>>>>>+..................@>>>>>>>",
">>>>>>>:@................@:>>>>>>>",
">>>>>>>>>$..............#>>>>>>>>>",
">>>>>>>>>>;+..........@->>>>>>>>>>",
">>>>>>>>>>>>-*@oXXo@*->>>>>>>>>>>>"
};
