/* XPM */
static char *top_right_active[] = {
/* columns rows colors chars-per-pixel */
"8 42 5 1 ",
"  c None",
". c #E1D3CC",
"X c #E2D2CD",
"o c #E3D2CD",
"O c #E2D3CD",
/* pixels */
"OOOX    ",
"OOOOO.  ",
"OOOOOOo ",
"OOOOOOO ",
"OOOOOOOO",
"OOOOOOOO",
"OOOOOOOO",
"OOOOOOOO",
"OOOOOOOO",
"OOOOOOOO",
"OOOOOOOO",
"OOOOOOOO",
"OOOOOOOO",
"OOOOOOOO",
"OOOOOOOO",
"OOOOOOOO",
"OOOOOOOO",
"OOOOOOOO",
"OOOOOOOO",
"OOOOOOOO",
"OOOOOOOO",
"OOOOOOOO",
"OOOOOOOO",
"OOOOOOOO",
"OOOOOOOO",
"OOOOOOOO",
"OOOOOOOO",
"OOOOOOOO",
"OOOOOOOO",
"OOOOOOOO",
"OOOOOOOO",
"OOOOOOOO",
"OOOOOOOO",
"OOOOOOOO",
"OOOOOOOO",
"OOOOOOOO",
"OOOOOOOO",
"OOOOOOOO",
"OOOOOOOO",
"OOOOOOOO",
"OOOOOOOO",
"OOOOOOOO"
};
